<?xml version="1.0" standalone="no"?>
<!DOCTYPE svg PUBLIC "-//W3C//DTD SVG 20010904//EN"
 "http://www.w3.org/TR/2001/REC-SVG-20010904/DTD/svg10.dtd">
<svg version="1.0" xmlns="http://www.w3.org/2000/svg"
 width="188.000000pt" height="188.000000pt" viewBox="0 0 188.000000 188.000000"
 preserveAspectRatio="xMidYMid meet">
<metadata>
Created by potrace 1.11, written by Peter Selinger 2001-2013
</metadata>
<g transform="translate(0.000000,188.000000) scale(0.100000,-0.100000)"
fill="#000000" stroke="none">
<path d="M59 1411 l-29 -29 0 -422 0 -422 29 -29 29 -29 206 0 206 0 32 29
c33 29 33 30 36 136 l4 107 24 -6 c35 -9 90 18 108 53 20 37 20 58 2 93 -10
18 -11 29 -3 37 18 18 56 221 47 247 -10 24 -43 36 -131 49 l-47 6 -4 75 c-3
71 -6 78 -36 105 l-32 29 -206 0 -206 0 -29 -29z m435 -37 c11 -10 16 -34 16
-75 0 -56 -1 -59 -24 -59 -22 0 -25 5 -28 43 l-3 42 -160 0 -160 0 -3 -294
c-2 -208 1 -298 9 -307 9 -11 45 -14 153 -14 147 0 166 5 166 42 0 13 8 18 25
18 l25 0 0 -104 c0 -82 -3 -108 -16 -120 -24 -24 -369 -24 -396 1 -17 15 -18
41 -18 411 0 354 2 397 17 414 14 16 35 18 199 18 153 0 185 -3 198 -16z
m-196 -138 c12 -27 10 -26 237 -56 88 -12 162 -23 164 -25 8 -8 -32 -187 -43
-191 -6 -2 -67 -7 -135 -11 l-124 -8 -10 -28 c-15 -46 3 -57 99 -57 47 0 84 4
84 10 0 19 41 33 67 21 19 -9 24 -17 21 -43 -4 -42 -28 -56 -71 -40 -43 16
-171 16 -214 0 -45 -16 -68 -2 -68 43 0 25 6 36 22 44 35 15 36 50 6 173 -27
110 -29 116 -60 129 -31 12 -43 39 -26 56 14 15 40 6 51 -17z"/>
<path d="M130 640 l0 -40 40 0 40 0 0 40 0 40 -40 0 -40 0 0 -40z"/>
<path d="M254 654 c-10 -38 7 -59 47 -59 33 0 34 1 34 40 0 39 -1 40 -37 43
-33 3 -38 0 -44 -24z"/>
<path d="M377 674 c-12 -13 -8 -61 7 -73 8 -7 27 -11 43 -9 25 3 28 7 28 43 0
39 -1 40 -35 43 -20 2 -39 0 -43 -4z"/>
<path d="M1370 1410 c0 -13 7 -20 20 -20 13 0 20 7 20 20 0 13 -7 20 -20 20
-13 0 -20 -7 -20 -20z"/>
<path d="M1680 1410 c0 -15 7 -20 25 -20 18 0 25 5 25 20 0 15 -7 20 -25 20
-18 0 -25 -5 -25 -20z"/>
<path d="M794 1407 c-3 -8 -4 -54 -2 -103 3 -81 5 -89 23 -89 18 0 20 8 23 63
l3 63 63 -68 c56 -60 65 -66 80 -54 14 12 16 30 14 105 -3 86 -4 91 -25 94
-22 3 -23 0 -23 -65 l0 -68 -61 68 c-60 66 -85 80 -95 54z"/>
<path d="M1050 1350 c0 -17 7 -20 45 -20 45 0 45 0 45 -35 0 -34 -1 -35 -40
-35 -22 0 -40 5 -40 10 0 6 16 10 35 10 28 0 35 4 35 20 0 16 -7 20 -38 20
-48 0 -74 -19 -74 -54 0 -37 12 -47 66 -53 69 -8 96 13 96 77 0 63 -17 80 -81
80 -42 0 -49 -3 -49 -20z"/>
<path d="M1216 1354 c-37 -37 -12 -74 51 -74 24 0 43 -4 43 -10 0 -5 -25 -10
-56 -10 -52 0 -55 -1 -52 -22 3 -20 10 -23 51 -26 62 -4 97 17 97 57 0 37 -15
49 -70 54 l-45 4 53 1 c45 2 52 5 52 22 0 18 -7 20 -54 20 -36 0 -60 -5 -70
-16z"/>
<path d="M1372 1293 c3 -65 6 -78 21 -81 15 -3 17 6 17 77 0 75 -2 81 -20 81
-19 0 -21 -5 -18 -77z"/>
<path d="M1444 1356 c-3 -7 -4 -42 -2 -77 2 -51 6 -64 21 -67 15 -3 17 5 17
58 0 61 0 61 28 58 26 -3 27 -6 30 -61 3 -49 6 -58 20 -55 13 2 18 16 20 61 3
49 6 58 20 55 13 -2 18 -16 20 -61 3 -49 6 -58 20 -55 13 3 18 16 20 65 3 55
0 64 -20 77 -31 20 -186 22 -194 2z"/>
<path d="M1682 1293 c3 -70 5 -78 23 -78 18 0 20 8 23 78 3 77 3 77 -23 77
-26 0 -26 0 -23 -77z"/>
<path d="M1370 1150 c0 -29 -2 -30 -44 -30 -27 0 -51 -6 -60 -16 -19 -19 -22
-104 -4 -122 7 -7 38 -12 69 -12 81 0 89 10 89 121 0 88 0 89 -25 89 -21 0
-25 -5 -25 -30z m0 -105 c0 -34 -1 -35 -40 -35 -39 0 -40 1 -40 35 0 34 1 35
40 35 39 0 40 -1 40 -35z"/>
<path d="M1442 1163 c2 -10 13 -19 26 -21 17 -3 22 2 22 17 0 16 -6 21 -26 21
-19 0 -25 -5 -22 -17z"/>
<path d="M872 1154 c-26 -18 -30 -65 -6 -88 10 -10 34 -16 67 -16 56 0 84 -11
73 -29 -4 -6 -38 -11 -82 -11 -67 0 -74 -2 -74 -20 0 -18 7 -20 83 -20 91 0
117 13 117 58 0 40 -34 62 -94 62 -55 0 -81 15 -55 31 8 5 40 9 72 9 50 0 57
2 57 20 0 18 -7 20 -68 20 -45 0 -75 -5 -90 -16z"/>
<path d="M1090 1101 c0 -17 8 -20 48 -23 45 -3 47 -4 47 -33 0 -28 -3 -30 -42
-33 -26 -2 -43 1 -43 7 0 6 18 11 40 11 33 0 40 3 40 20 0 17 -7 20 -44 20
-27 0 -51 -6 -60 -16 -19 -18 -21 -55 -4 -72 14 -14 116 -16 136 -3 22 14 27
87 8 116 -14 22 -24 25 -71 25 -48 0 -55 -3 -55 -19z"/>
<path d="M1440 1045 c0 -73 1 -75 25 -75 24 0 25 2 25 75 0 73 -1 75 -25 75
-24 0 -25 -2 -25 -75z"/>
<path d="M1527 1102 c-19 -21 -22 -83 -7 -113 8 -15 22 -19 60 -19 43 0 50 3
50 20 0 17 -7 20 -41 20 -39 0 -40 1 -37 33 3 30 5 32 43 32 l40 0 3 -77 c3
-70 5 -78 22 -78 18 0 20 7 20 84 0 104 -9 116 -84 116 -39 0 -57 -5 -69 -18z"/>
<path d="M1171 885 c-1 -18 -6 -20 -36 -17 -29 3 -35 1 -36 -14 0 -15 -2 -16
-7 -4 -4 8 -15 16 -24 18 -14 2 -18 -4 -18 -29 0 -24 4 -30 15 -25 8 3 15 0
15 -6 0 -17 30 12 31 31 1 9 4 5 8 -8 9 -33 27 -37 35 -9 l7 23 9 -22 c11 -27
23 -29 40 -8 14 17 4 55 -15 55 -7 0 -16 8 -18 18 -4 14 -5 13 -6 -3z m29 -50
c0 -8 -4 -15 -10 -15 -5 0 -10 7 -10 15 0 8 5 15 10 15 6 0 10 -7 10 -15z"/>
<path d="M1262 875 c-14 -15 -22 -34 -20 -47 3 -20 9 -23 46 -25 32 -1 42 2
42 15 0 13 2 13 13 -3 13 -17 15 -17 30 6 13 18 17 19 17 7 0 -25 21 -33 35
-14 11 14 14 14 18 2 4 -9 17 -13 36 -12 17 1 32 -2 34 -7 2 -6 12 -5 25 2 12
7 28 9 34 5 6 -4 17 1 25 11 12 17 13 18 13 1 0 -9 5 -14 10 -11 6 3 10 15 10
26 0 10 5 19 10 19 6 0 10 4 10 8 0 5 -41 8 -92 8 -89 -1 -92 -2 -99 -26 -6
-20 -7 -16 -9 20 -2 25 -5 36 -7 24 -3 -15 -11 -20 -34 -18 -23 2 -33 -3 -39
-19 l-9 -22 0 22 c-1 19 -6 22 -36 19 -26 -2 -35 2 -37 15 -3 16 -6 15 -26 -6z
m5 -47 c-3 -8 -6 -5 -6 6 -1 11 2 17 5 13 3 -3 4 -12 1 -19z m220 0 c-3 -8 -6
-5 -6 6 -1 11 2 17 5 13 3 -3 4 -12 1 -19z m50 0 c-3 -8 -6 -5 -6 6 -1 11 2
17 5 13 3 -3 4 -12 1 -19z"/>
<path d="M837 862 c-11 -16 13 -82 30 -82 9 0 13 14 12 48 -1 29 -4 36 -6 20
-2 -16 -8 -28 -13 -28 -5 0 -10 12 -12 28 -2 18 -6 23 -11 14z"/>
<path d="M890 841 c0 -36 19 -50 35 -27 11 14 13 15 18 1 4 -9 17 -14 32 -13
19 2 25 8 25 25 0 14 6 23 15 23 8 0 15 5 15 10 0 6 -13 9 -30 8 -24 -2 -30
-7 -30 -25 0 -13 -4 -23 -10 -23 -5 0 -10 12 -10 28 0 21 -2 24 -10 12 -6 -10
-10 -11 -10 -2 0 6 -9 12 -20 12 -15 0 -20 -7 -20 -29z m30 -6 c0 -8 -4 -15
-10 -15 -5 0 -10 7 -10 15 0 8 5 15 10 15 6 0 10 -7 10 -15z"/>
<path d="M1421 666 c-8 -9 -11 -45 -9 -98 l3 -83 70 0 70 0 -3 40 c-1 22 3 50
10 63 10 20 8 26 -22 57 -27 28 -42 35 -71 35 -20 0 -42 -6 -48 -14z m92 -26
c3 -11 12 -20 21 -20 9 0 16 -8 16 -20 0 -17 -7 -20 -40 -20 -39 0 -39 -1 -38
-35 1 -32 3 -34 42 -38 30 -3 25 -4 -21 -5 l-63 -2 0 80 0 80 39 0 c30 0 40
-4 44 -20z"/>
<path d="M1715 660 c-3 -5 -15 -10 -26 -10 -11 0 -22 -8 -25 -17 -3 -10 -11
-28 -17 -41 -8 -16 -8 -25 1 -34 7 -7 12 -20 12 -30 0 -10 8 -21 18 -24 9 -3
27 -10 38 -16 14 -7 27 -7 40 0 11 6 27 13 37 16 9 3 17 14 17 24 0 10 5 23
12 30 9 9 9 18 1 34 -6 13 -14 31 -17 41 -3 9 -14 17 -25 17 -11 0 -23 5 -26
10 -3 6 -12 10 -20 10 -8 0 -17 -4 -20 -10z m35 -8 c0 -13 -12 -22 -22 -16
-10 6 -1 24 13 24 5 0 9 -4 9 -8z m-50 -20 c0 -13 -12 -22 -22 -16 -10 6 -1
24 13 24 5 0 9 -4 9 -8z m100 -8 c0 -9 -5 -14 -12 -12 -18 6 -21 28 -4 28 9 0
16 -7 16 -16z m-126 -55 c-3 -5 -10 -7 -15 -3 -5 3 -7 10 -3 15 3 5 10 7 15 3
5 -3 7 -10 3 -15z m146 13 c0 -13 -12 -22 -22 -16 -10 6 -1 24 13 24 5 0 9 -4
9 -8z m-120 -58 c0 -17 -22 -14 -28 4 -2 7 3 12 12 12 9 0 16 -7 16 -16z m100
7 c0 -12 -20 -25 -27 -18 -7 7 6 27 18 27 5 0 9 -4 9 -9z m-56 -32 c-3 -5 -10
-7 -15 -3 -5 3 -7 10 -3 15 3 5 10 7 15 3 5 -3 7 -10 3 -15z"/>
<path d="M830 613 c0 -27 3 -58 6 -70 8 -31 52 -44 91 -28 29 12 31 17 35 72
2 32 3 61 1 66 -3 4 -33 7 -69 7 l-64 0 0 -47z m117 -25 c-4 -28 -12 -55 -19
-60 -11 -7 -66 -4 -74 5 -1 1 -5 26 -9 55 l-7 52 57 0 58 0 -6 -52z"/>
<path d="M895 620 c40 -6 35 -15 -15 -23 -20 -4 -19 -5 8 -6 21 -1 32 -6 32
-16 0 -18 -31 -20 -48 -3 -9 9 -12 8 -12 -4 0 -19 30 -31 53 -23 15 6 27 35
27 68 0 14 -8 17 -42 16 l-43 -2 40 -7z"/>
<path d="M1000 580 l0 -81 73 3 72 3 3 78 3 77 -76 0 -75 0 0 -80z m140 39 c0
-25 -3 -29 -13 -21 -7 6 -23 9 -35 5 -17 -4 -22 -13 -22 -39 0 -34 -14 -46
-23 -21 -3 7 -6 5 -6 -5 -1 -10 -8 -18 -16 -18 -12 0 -15 14 -15 65 l0 65 65
0 65 0 0 -31z m-16 -35 c9 -3 16 -12 16 -20 0 -12 -4 -12 -20 -2 -30 19 -27
34 4 22z m-6 -42 c6 -18 -15 -14 -22 4 -4 10 -1 14 6 12 6 -2 14 -10 16 -16z"/>
<path d="M1250 635 c0 -18 -5 -25 -20 -25 -25 0 -34 -21 -26 -55 4 -16 13 -25
26 -25 13 0 20 -7 20 -19 0 -22 30 -35 60 -26 11 3 20 15 20 25 0 12 8 20 23
22 18 2 23 10 25 41 3 34 1 37 -22 37 -21 0 -26 5 -26 25 0 23 -4 25 -40 25
-36 0 -40 -2 -40 -25z m37 -10 c0 -8 -4 -15 -9 -15 -4 0 -8 7 -8 15 0 8 4 15
8 15 5 0 9 -7 9 -15z m23 -25 c0 -15 -7 -20 -25 -20 -13 0 -28 -7 -33 -16 -10
-19 -32 -11 -32 12 0 9 11 14 35 14 22 0 38 6 41 15 8 21 14 19 14 -5z m50
-30 c0 -16 -7 -20 -33 -20 -25 0 -37 -6 -45 -22 -10 -23 -11 -23 -11 5 -1 22
3 27 24 27 14 0 28 7 31 15 9 22 34 18 34 -5z m-59 -63 c-10 -9 -11 -8 -5 6 3
10 9 15 12 12 3 -3 0 -11 -7 -18z"/>
<path d="M652 590 c2 -33 7 -62 10 -65 3 -3 21 -8 39 -11 50 -8 67 11 75 79
l7 57 -68 0 -67 0 4 -60z m111 3 c-6 -55 -26 -77 -63 -68 -31 8 -26 1 -35 63
l-7 52 55 0 55 0 -5 -47z"/>
<path d="M670 610 c0 -16 7 -20 30 -20 18 0 30 -5 30 -13 0 -22 -11 -27 -32
-16 -16 9 -19 8 -16 -3 11 -33 68 -14 68 23 0 13 -9 19 -32 22 l-33 4 33 1
c46 3 40 22 -8 22 -33 0 -40 -3 -40 -20z"/>
</g>
</svg>
